<svg xmlns="http://www.w3.org/2000/svg" viewBox="0 0 30 30"><g stroke="none"><path d="M5.6 17.35c0-1.1.5-2.2 1.3-2.9-.8-.7-1.3-1.7-1.3-2.9 0-2.1 1.7-3.8 3.8-3.8 1.1 0 2.2.5 2.9 1.3.5-.5 1.1-.9 1.8-1.1.4-.1.8-.2 1.2-.2h.8c-1.3-2.3-3.8-3.8-6.6-3.8-4.3 0-7.7 3.4-7.7 7.7 0 2.8 1.5 5.3 3.8 6.6v-.9z" style="fill:#cecece"/><path d="M11.4 26.05H7.6v-8.6c0-1.1.9-1.9 1.9-1.9 1.1 0 2.2-.5 3-1.4.6-.7.9-1.5.9-2.4 0-.5.2-1 .6-1.4.4-.4.8-.6 1.4-.6h6v3.8h-4.3c-.3 1.1-.8 2.1-1.5 3-1 1.3-2.4 2.1-4 2.5v7h-.2z"/><path d="M18.6 17.35l2.5-5.7-2.5-5.8 9.6 5.8z"/></g></svg>