<svg xmlns="http://www.w3.org/2000/svg" viewBox="0 0 30 30"><path stroke="none" d="M23.4 22.784s-3.1 3.1-8.4.2c-5.3-3-8.4.2-8.4.2" style="fill:none;stroke:#00e9ff;stroke-width:2;stroke-linecap:round;stroke-linejoin:round;stroke-miterlimit:10"/><path d="M14 4.784h2v2h-2zM15 9.884v-.6.6c1.2 1.4 3.9 2.5 6 2.7v-4.8H9v4.8c2.2-.2 4.8-1.3 6-2.7z"/><path d="M11 18.784c1.5 0 3.1.5 4.7 1.5 1 .6 2 .9 2.9 1 2-2.6 3.3-4.6 3.3-6.6-2.2-.1-5.5-1-7-2.6-1.5 1.6-4.8 2.6-7 2.6 0 1.5.7 2.4 1.8 4.3.4-.1.9-.2 1.3-.2z"/></svg>